<svg width="48" height="40" viewBox="0 0 48 40" fill="none" xmlns="http://www.w3.org/2000/svg">
<g clip-path="url(#clip0_348_593)">
<path fill-rule="evenodd" clip-rule="evenodd" d="M45.918 38.6666C45.918 38.6666 49.0013 38.6666 49.0013 35.5555C49.0013 32.4444 45.918 23.1111 33.5846 23.1111C21.2513 23.1111 18.168 32.4444 18.168 35.5555C18.168 38.6666 21.2513 38.6666 21.2513 38.6666H45.918ZM21.3191 35.5555H45.8501C45.8646 35.5538 45.879 35.5518 45.8933 35.5493L45.918 35.5431C45.9118 34.7218 45.4031 32.3386 43.5746 30.192C41.8726 28.1791 38.8818 26.2222 33.5846 26.2222C28.2906 26.2222 25.2997 28.1822 23.5946 30.192C21.7662 32.3386 21.2544 34.7249 21.2513 35.5431C21.2739 35.5475 21.2965 35.5516 21.3191 35.5555V35.5555ZM33.5846 16.8889C35.2201 16.8889 36.7887 16.2333 37.9451 15.0664C39.1016 13.8995 39.7513 12.3169 39.7513 10.6666C39.7513 9.01641 39.1016 7.43376 37.9451 6.26687C36.7887 5.09998 35.2201 4.44442 33.5846 4.44442C31.9491 4.44442 30.3806 5.09998 29.2241 6.26687C28.0677 7.43376 27.418 9.01641 27.418 10.6666C27.418 12.3169 28.0677 13.8995 29.2241 15.0664C30.3806 16.2333 31.9491 16.8889 33.5846 16.8889ZM42.8346 10.6666C42.8346 11.8923 42.5954 13.106 42.1305 14.2384C41.6657 15.3707 40.9843 16.3996 40.1254 17.2663C39.2664 18.133 38.2467 18.8205 37.1245 19.2895C36.0022 19.7586 34.7994 20 33.5846 20C32.3699 20 31.1671 19.7586 30.0448 19.2895C28.9226 18.8205 27.9028 18.133 27.0439 17.2663C26.185 16.3996 25.5036 15.3707 25.0387 14.2384C24.5739 13.106 24.3346 11.8923 24.3346 10.6666C24.3346 8.19129 25.3092 5.81732 27.0439 4.06698C28.7786 2.31664 31.1314 1.33331 33.5846 1.33331C36.0379 1.33331 38.3907 2.31664 40.1254 4.06698C41.8601 5.81732 42.8346 8.19129 42.8346 10.6666V10.6666ZM21.054 23.9822C19.8206 23.5903 18.5492 23.3327 17.2615 23.2138C16.5379 23.1443 15.8115 23.1101 15.0846 23.1111C2.7513 23.1111 -0.332031 32.4444 -0.332031 35.5555C-0.332031 37.6306 0.694719 38.6666 2.7513 38.6666H15.7506C15.2935 37.6954 15.0656 36.6305 15.0846 35.5555C15.0846 32.4133 16.2471 29.2026 18.4455 26.5209C19.1947 25.6062 20.0673 24.7506 21.054 23.9822ZM14.838 26.2222C9.69497 26.2844 6.77505 28.2133 5.09464 30.192C3.25389 32.3511 2.7513 34.7435 2.7513 35.5555H12.0013C12.0013 32.3044 12.9972 29.0658 14.838 26.2222ZM4.29297 12.2222C4.29297 9.74685 5.26752 7.37288 7.00223 5.62254C8.73694 3.8722 11.0897 2.88887 13.543 2.88887C15.9962 2.88887 18.349 3.8722 20.0837 5.62254C21.8184 7.37288 22.793 9.74685 22.793 12.2222C22.793 14.6976 21.8184 17.0715 20.0837 18.8219C18.349 20.5722 15.9962 21.5555 13.543 21.5555C11.0897 21.5555 8.73694 20.5722 7.00223 18.8219C5.26752 17.0715 4.29297 14.6976 4.29297 12.2222V12.2222ZM13.543 5.99998C11.9075 5.99998 10.339 6.65553 9.18248 7.82243C8.026 8.98932 7.3763 10.572 7.3763 12.2222C7.3763 13.8724 8.026 15.4551 9.18248 16.622C10.339 17.7889 11.9075 18.4444 13.543 18.4444C15.1785 18.4444 16.747 17.7889 17.9035 16.622C19.0599 15.4551 19.7096 13.8724 19.7096 12.2222C19.7096 10.572 19.0599 8.98932 17.9035 7.82243C16.747 6.65553 15.1785 5.99998 13.543 5.99998Z" fill="#23A6F0"/>
</g>
<defs>
<clipPath id="clip0_348_593">
<rect width="48" height="39.5295" fill="white"/>
</clipPath>
</defs>
</svg>
