<svg width="132" height="23" viewBox="0 0 132 23" fill="none" xmlns="http://www.w3.org/2000/svg">
<g clip-path="url(#clip0_348_647)">
<path d="M21.0969 8.41927C21.0392 8.24946 20.9331 8.10025 20.7916 7.99006C20.6501 7.87987 20.4795 7.81353 20.3007 7.79922L15.0716 7.38371L12.8087 2.3747C12.7367 2.21337 12.6195 2.07634 12.4712 1.98016C12.323 1.88397 12.1501 1.83274 11.9734 1.83264C11.7968 1.83254 11.6238 1.88359 11.4755 1.97961C11.3272 2.07563 11.2098 2.21253 11.1375 2.37378L8.87473 7.38371L3.64558 7.79922C3.46989 7.81314 3.30193 7.87738 3.16179 7.98425C3.02165 8.09113 2.91527 8.23612 2.85537 8.40187C2.79548 8.56762 2.7846 8.74712 2.82405 8.91889C2.8635 9.09066 2.9516 9.24743 3.07781 9.37044L6.94212 13.1375L5.57544 19.0555C5.53394 19.2347 5.54724 19.4221 5.61361 19.5936C5.67999 19.7651 5.79637 19.9127 5.94765 20.0172C6.09894 20.1217 6.27815 20.1783 6.46202 20.1797C6.6459 20.1811 6.82595 20.1272 6.97881 20.025L11.9731 16.6955L16.9675 20.025C17.1237 20.1288 17.308 20.1822 17.4955 20.1781C17.683 20.1739 17.8647 20.1125 18.0162 20.002C18.1678 19.8916 18.2819 19.7373 18.3431 19.5601C18.4044 19.3828 18.4099 19.1911 18.3589 19.0106L16.6813 13.1403L20.8419 9.39612C21.1143 9.15031 21.2143 8.7669 21.0969 8.41927V8.41927Z" fill="#F3CD03"/>
<path d="M48.1086 8.41927C48.0509 8.24946 47.9448 8.10025 47.8033 7.99006C47.6618 7.87987 47.4912 7.81353 47.3124 7.79922L42.0833 7.38371L39.8205 2.3747C39.7484 2.21337 39.6312 2.07634 39.483 1.98016C39.3347 1.88397 39.1619 1.83274 38.9852 1.83264C38.8085 1.83254 38.6355 1.88359 38.4872 1.97961C38.3389 2.07563 38.2215 2.21253 38.1493 2.37378L35.8864 7.38371L30.6573 7.79922C30.4816 7.81314 30.3136 7.87738 30.1735 7.98425C30.0334 8.09113 29.927 8.23612 29.8671 8.40187C29.8072 8.56762 29.7963 8.74712 29.8358 8.91889C29.8752 9.09066 29.9633 9.24743 30.0895 9.37044L33.9538 13.1375L32.5872 19.0555C32.5457 19.2347 32.559 19.4221 32.6253 19.5936C32.6917 19.7651 32.8081 19.9127 32.9594 20.0172C33.1107 20.1217 33.2899 20.1783 33.4737 20.1797C33.6576 20.1811 33.8377 20.1272 33.9905 20.025L38.9849 16.6955L43.9792 20.025C44.1354 20.1288 44.3197 20.1822 44.5072 20.1781C44.6947 20.1739 44.8764 20.1125 45.028 20.002C45.1795 19.8916 45.2936 19.7373 45.3548 19.5601C45.4161 19.3828 45.4216 19.1911 45.3706 19.0106L43.693 13.1403L47.8536 9.39612C48.126 9.15031 48.226 8.7669 48.1086 8.41927V8.41927Z" fill="#F3CD03"/>
<path d="M75.1203 8.41927C75.0627 8.24946 74.9565 8.10025 74.8151 7.99006C74.6736 7.87987 74.5029 7.81353 74.3242 7.79922L69.095 7.38371L66.8322 2.3747C66.7601 2.21337 66.6429 2.07634 66.4947 1.98016C66.3465 1.88397 66.1736 1.83274 65.9969 1.83264C65.8202 1.83254 65.6472 1.88359 65.4989 1.97961C65.3506 2.07563 65.2332 2.21253 65.161 2.37378L62.8982 7.38371L57.669 7.79922C57.4933 7.81314 57.3254 7.87738 57.1852 7.98425C57.0451 8.09113 56.9387 8.23612 56.8788 8.40187C56.8189 8.56762 56.808 8.74712 56.8475 8.91889C56.8869 9.09066 56.975 9.24743 57.1012 9.37044L60.9656 13.1375L59.5989 19.0555C59.5574 19.2347 59.5707 19.4221 59.6371 19.5936C59.7034 19.7651 59.8198 19.9127 59.9711 20.0172C60.1224 20.1217 60.3016 20.1783 60.4855 20.1797C60.6693 20.1811 60.8494 20.1272 61.0022 20.025L65.9966 16.6955L70.9909 20.025C71.1472 20.1288 71.3314 20.1822 71.5189 20.1781C71.7064 20.1739 71.8881 20.1125 72.0397 20.002C72.1912 19.8916 72.3053 19.7373 72.3666 19.5601C72.4278 19.3828 72.4333 19.1911 72.3824 19.0106L70.7047 13.1403L74.8653 9.39612C75.1377 9.15031 75.2377 8.7669 75.1203 8.41927V8.41927Z" fill="#F3CD03"/>
<path d="M102.132 8.41927C102.074 8.24946 101.968 8.10025 101.827 7.99006C101.685 7.87987 101.515 7.81353 101.336 7.79922L96.1067 7.38371L93.8439 2.3747C93.7718 2.21337 93.6546 2.07634 93.5064 1.98016C93.3582 1.88397 93.1853 1.83274 93.0086 1.83264C92.8319 1.83254 92.659 1.88359 92.5106 1.97961C92.3623 2.07563 92.2449 2.21253 92.1727 2.37378L89.9099 7.38371L84.6807 7.79922C84.505 7.81314 84.3371 7.87738 84.1969 7.98425C84.0568 8.09113 83.9504 8.23612 83.8905 8.40187C83.8306 8.56762 83.8198 8.74712 83.8592 8.91889C83.8987 9.09066 83.9868 9.24743 84.113 9.37044L87.9773 13.1375L86.6106 19.0555C86.5691 19.2347 86.5824 19.4221 86.6488 19.5936C86.7151 19.7651 86.8315 19.9127 86.9828 20.0172C87.1341 20.1217 87.3133 20.1783 87.4972 20.1797C87.6811 20.1811 87.8611 20.1272 88.014 20.025L93.0083 16.6955L98.0026 20.025C98.1589 20.1288 98.3431 20.1822 98.5306 20.1781C98.7181 20.1739 98.8999 20.1125 99.0514 20.002C99.2029 19.8916 99.317 19.7373 99.3783 19.5601C99.4395 19.3828 99.4451 19.1911 99.3941 19.0106L97.7165 13.1403L101.877 9.39612C102.149 9.15031 102.249 8.7669 102.132 8.41927V8.41927Z" fill="#F3CD03"/>
<path d="M114.998 13.1377L113.631 19.0557C113.589 19.2349 113.601 19.4227 113.667 19.5945C113.734 19.7664 113.85 19.9143 114.001 20.0191C114.153 20.1238 114.332 20.1804 114.516 20.1814C114.701 20.1825 114.881 20.1281 115.033 20.0252L120.028 16.6956L125.022 20.0252C125.178 20.1289 125.363 20.1823 125.55 20.1782C125.738 20.1741 125.919 20.1127 126.071 20.0022C126.222 19.8917 126.337 19.7375 126.398 19.5602C126.459 19.383 126.465 19.1912 126.414 19.0107L124.736 13.1404L128.897 9.39628C129.03 9.27629 129.125 9.11988 129.17 8.94638C129.216 8.77289 129.209 8.58992 129.151 8.4201C129.094 8.25029 128.988 8.10107 128.846 7.99091C128.705 7.88075 128.534 7.81448 128.355 7.80029L123.126 7.38386L120.863 2.37485C120.791 2.21356 120.674 2.0766 120.526 1.98049C120.377 1.88439 120.205 1.83325 120.028 1.83325C119.851 1.83325 119.678 1.88439 119.53 1.98049C119.382 2.0766 119.264 2.21356 119.192 2.37485L116.929 7.38386L111.7 7.79937C111.525 7.81329 111.357 7.87753 111.216 7.98441C111.076 8.09128 110.97 8.23627 110.91 8.40202C110.85 8.56777 110.839 8.74727 110.879 8.91904C110.918 9.09081 111.006 9.24758 111.132 9.37059L114.998 13.1377V13.1377ZM117.615 9.16972C117.778 9.15682 117.936 9.10012 118.07 9.00555C118.204 8.91098 118.31 8.78203 118.378 8.63222L120.028 4.98071L121.678 8.63222C121.745 8.78203 121.852 8.91098 121.986 9.00555C122.12 9.10012 122.277 9.15682 122.441 9.16972L126.084 9.45865L123.084 12.159C122.824 12.3938 122.72 12.7552 122.815 13.0927L123.965 17.1148L120.538 14.83C120.387 14.729 120.21 14.6751 120.029 14.6751C119.848 14.6751 119.671 14.729 119.521 14.83L115.94 17.2175L116.903 13.0478C116.938 12.8944 116.933 12.7346 116.889 12.5836C116.845 12.4326 116.762 12.2955 116.65 12.1856L113.863 9.46874L117.615 9.16972V9.16972Z" fill="#F3CD03"/>
</g>
<defs>
<clipPath id="clip0_348_647">
<rect width="130.068" height="22.0136" fill="white" transform="translate(0.964844)"/>
</clipPath>
</defs>
</svg>
